<mxfile host="65bd71144e">
    <diagram id="HIzjBaC0xF_liW3ieUTu" name="Page-1">
        <mxGraphModel dx="983" dy="1772" grid="1" gridSize="10" guides="1" tooltips="1" connect="1" arrows="1" fold="1" page="1" pageScale="1" pageWidth="850" pageHeight="1100" math="0" shadow="0">
            <root>
                <mxCell id="0"/>
                <mxCell id="1" parent="0"/>
                <mxCell id="3" value="" style="rounded=0;whiteSpace=wrap;html=1;fillColor=#f5f5f5;strokeColor=#666666;gradientColor=#b3b3b3;" parent="1" vertex="1">
                    <mxGeometry x="160" y="-10" width="850" height="1480" as="geometry"/>
                </mxCell>
                <mxCell id="6" style="edgeStyle=none;html=1;exitX=0.5;exitY=1;exitDx=0;exitDy=0;entryX=0.5;entryY=0;entryDx=0;entryDy=0;fontFamily=Helvetica;fontSize=20;fontColor=#000000;strokeColor=#000000;strokeWidth=2;endArrow=none;endFill=0;rounded=0;" parent="1" target="5" edge="1">
                    <mxGeometry relative="1" as="geometry">
                        <mxPoint x="420" y="120" as="sourcePoint"/>
                    </mxGeometry>
                </mxCell>
                <mxCell id="11" style="edgeStyle=none;shape=connector;rounded=0;html=1;exitX=0.5;exitY=1;exitDx=0;exitDy=0;entryX=0;entryY=0.5;entryDx=0;entryDy=0;labelBackgroundColor=default;strokeColor=#000000;strokeWidth=3;fontFamily=Helvetica;fontSize=20;fontColor=#000000;endArrow=none;endFill=0;" parent="1" source="5" edge="1" target="92">
                    <mxGeometry relative="1" as="geometry">
                        <mxPoint x="420" y="310" as="targetPoint"/>
                        <Array as="points">
                            <mxPoint x="420" y="440"/>
                        </Array>
                    </mxGeometry>
                </mxCell>
                <mxCell id="5" value="Протокол" style="rhombus;whiteSpace=wrap;html=1;strokeColor=#000000;strokeWidth=3;fontFamily=Helvetica;fontSize=20;fontColor=#000000;fillColor=#f5f5f5;gradientColor=none;" parent="1" vertex="1">
                    <mxGeometry x="330" y="90" width="180" height="130" as="geometry"/>
                </mxCell>
                <mxCell id="12" value="Да" style="text;html=1;strokeColor=none;fillColor=none;align=center;verticalAlign=middle;whiteSpace=wrap;rounded=0;strokeWidth=3;fontFamily=Helvetica;fontSize=20;fontColor=#000000;" parent="1" vertex="1">
                    <mxGeometry x="630" y="590" width="60" height="30" as="geometry"/>
                </mxCell>
                <mxCell id="64" value="Конец" style="ellipse;whiteSpace=wrap;html=1;strokeColor=#000000;strokeWidth=3;fontFamily=Helvetica;fontSize=20;fontColor=#000000;fillColor=#f5f5f5;gradientColor=none;" parent="1" vertex="1">
                    <mxGeometry x="500" y="1230" width="120" height="80" as="geometry"/>
                </mxCell>
                <mxCell id="90" value="" style="edgeStyle=none;html=1;strokeWidth=3;strokeColor=#000000;endArrow=none;endFill=0;" edge="1" parent="1" source="81" target="5">
                    <mxGeometry relative="1" as="geometry"/>
                </mxCell>
                <mxCell id="81" value="1" style="ellipse;whiteSpace=wrap;html=1;fillColor=#f5f5f5;gradientColor=none;strokeColor=#000000;strokeWidth=3;fontColor=#000000;fontSize=20;" parent="1" vertex="1">
                    <mxGeometry x="390" y="10" width="60" height="60" as="geometry"/>
                </mxCell>
                <mxCell id="89" value="Нет" style="text;html=1;strokeColor=none;fillColor=none;align=center;verticalAlign=middle;whiteSpace=wrap;rounded=0;strokeWidth=3;fontFamily=Helvetica;fontSize=20;fontColor=#000000;" parent="1" vertex="1">
                    <mxGeometry x="500" y="500" width="60" height="30" as="geometry"/>
                </mxCell>
                <mxCell id="93" style="edgeStyle=none;html=1;exitX=0;exitY=0.5;exitDx=0;exitDy=0;strokeColor=#000000;strokeWidth=3;fontFamily=Helvetica;fontSize=20;fontColor=#000000;endArrow=none;endFill=0;" edge="1" parent="1" source="91">
                    <mxGeometry relative="1" as="geometry">
                        <mxPoint x="420" y="360" as="targetPoint"/>
                    </mxGeometry>
                </mxCell>
                <mxCell id="106" style="edgeStyle=none;rounded=0;html=1;exitX=1;exitY=0.5;exitDx=0;exitDy=0;entryX=0.5;entryY=0;entryDx=0;entryDy=0;strokeColor=#000000;strokeWidth=3;fontFamily=Helvetica;fontSize=20;fontColor=#000000;endArrow=none;endFill=0;" edge="1" parent="1" source="91" target="98">
                    <mxGeometry relative="1" as="geometry">
                        <Array as="points">
                            <mxPoint x="640" y="360"/>
                        </Array>
                    </mxGeometry>
                </mxCell>
                <mxCell id="91" value="Modbus" style="rounded=0;whiteSpace=wrap;html=1;fontSize=20;fillColor=#FFFFFF;strokeColor=#000000;strokeWidth=3;fontColor=#000000;" vertex="1" parent="1">
                    <mxGeometry x="460" y="330" width="120" height="60" as="geometry"/>
                </mxCell>
                <mxCell id="108" style="edgeStyle=none;rounded=0;html=1;exitX=1;exitY=0.5;exitDx=0;exitDy=0;strokeColor=#000000;strokeWidth=3;fontFamily=Helvetica;fontSize=20;fontColor=#000000;endArrow=none;endFill=0;" edge="1" parent="1" source="92">
                    <mxGeometry relative="1" as="geometry">
                        <mxPoint x="640" y="440" as="targetPoint"/>
                    </mxGeometry>
                </mxCell>
                <mxCell id="92" value="Micontbus" style="rounded=0;whiteSpace=wrap;html=1;fontSize=20;fillColor=#FFFFFF;strokeColor=#000000;strokeWidth=3;fontColor=#000000;" vertex="1" parent="1">
                    <mxGeometry x="460" y="410" width="120" height="60" as="geometry"/>
                </mxCell>
                <mxCell id="110" style="edgeStyle=none;rounded=0;html=1;exitX=0.5;exitY=1;exitDx=0;exitDy=0;entryX=0.5;entryY=0;entryDx=0;entryDy=0;strokeColor=#000000;strokeWidth=3;fontFamily=Helvetica;fontSize=20;fontColor=#000000;endArrow=none;endFill=0;" edge="1" parent="1" source="95">
                    <mxGeometry relative="1" as="geometry">
                        <mxPoint x="640" y="810" as="targetPoint"/>
                    </mxGeometry>
                </mxCell>
                <mxCell id="128" style="edgeStyle=none;rounded=0;html=1;exitX=1;exitY=0.5;exitDx=0;exitDy=0;strokeColor=#000000;strokeWidth=3;fontFamily=Helvetica;fontSize=20;fontColor=#000000;endArrow=none;endFill=0;" edge="1" parent="1" source="95">
                    <mxGeometry relative="1" as="geometry">
                        <mxPoint x="640" y="1190" as="targetPoint"/>
                        <Array as="points">
                            <mxPoint x="750" y="695"/>
                            <mxPoint x="750" y="1190"/>
                        </Array>
                    </mxGeometry>
                </mxCell>
                <mxCell id="95" value="Адрес верный" style="rhombus;whiteSpace=wrap;html=1;strokeColor=#000000;strokeWidth=3;fontFamily=Helvetica;fontSize=20;fontColor=#000000;fillColor=#f5f5f5;gradientColor=none;" vertex="1" parent="1">
                    <mxGeometry x="560" y="630" width="160" height="130" as="geometry"/>
                </mxCell>
                <mxCell id="109" style="edgeStyle=none;rounded=0;html=1;exitX=0.5;exitY=1;exitDx=0;exitDy=0;entryX=0.5;entryY=0;entryDx=0;entryDy=0;strokeColor=#000000;strokeWidth=3;fontFamily=Helvetica;fontSize=20;fontColor=#000000;endArrow=none;endFill=0;" edge="1" parent="1" source="98" target="95">
                    <mxGeometry relative="1" as="geometry"/>
                </mxCell>
                <mxCell id="126" style="edgeStyle=none;rounded=0;html=1;exitX=0;exitY=0.5;exitDx=0;exitDy=0;entryX=0.5;entryY=0;entryDx=0;entryDy=0;strokeColor=#000000;strokeWidth=3;fontFamily=Helvetica;fontSize=20;fontColor=#000000;endArrow=none;endFill=0;" edge="1" parent="1" source="98" target="105">
                    <mxGeometry relative="1" as="geometry">
                        <Array as="points">
                            <mxPoint x="300" y="535"/>
                        </Array>
                    </mxGeometry>
                </mxCell>
                <mxCell id="98" value="CRC верное" style="rhombus;whiteSpace=wrap;html=1;strokeColor=#000000;strokeWidth=3;fontFamily=Helvetica;fontSize=20;fontColor=#000000;fillColor=#f5f5f5;gradientColor=none;" vertex="1" parent="1">
                    <mxGeometry x="560" y="470" width="160" height="130" as="geometry"/>
                </mxCell>
                <mxCell id="104" value="Да" style="text;html=1;strokeColor=none;fillColor=none;align=center;verticalAlign=middle;whiteSpace=wrap;rounded=0;strokeWidth=3;fontFamily=Helvetica;fontSize=20;fontColor=#000000;" vertex="1" parent="1">
                    <mxGeometry x="640" y="750" width="60" height="30" as="geometry"/>
                </mxCell>
                <mxCell id="127" style="edgeStyle=none;rounded=0;html=1;exitX=0.5;exitY=1;exitDx=0;exitDy=0;strokeColor=#000000;strokeWidth=3;fontFamily=Helvetica;fontSize=20;fontColor=#000000;endArrow=classic;endFill=1;" edge="1" parent="1" source="105">
                    <mxGeometry relative="1" as="geometry">
                        <mxPoint x="560" y="1190" as="targetPoint"/>
                        <Array as="points">
                            <mxPoint x="300" y="1190"/>
                        </Array>
                    </mxGeometry>
                </mxCell>
                <mxCell id="105" value="Сообщение о ошибке" style="rounded=0;whiteSpace=wrap;html=1;fontSize=20;fillColor=#FFFFFF;strokeColor=#000000;strokeWidth=3;fontColor=#000000;" vertex="1" parent="1">
                    <mxGeometry x="240" y="1080" width="120" height="60" as="geometry"/>
                </mxCell>
                <mxCell id="113" value="Нет" style="text;html=1;strokeColor=none;fillColor=none;align=center;verticalAlign=middle;whiteSpace=wrap;rounded=0;strokeWidth=3;fontFamily=Helvetica;fontSize=20;fontColor=#000000;" vertex="1" parent="1">
                    <mxGeometry x="710" y="660" width="60" height="30" as="geometry"/>
                </mxCell>
                <mxCell id="117" style="edgeStyle=none;rounded=0;html=1;exitX=0.5;exitY=1;exitDx=0;exitDy=0;strokeColor=#000000;strokeWidth=3;fontFamily=Helvetica;fontSize=20;fontColor=#000000;endArrow=none;endFill=0;" edge="1" parent="1" source="114" target="115">
                    <mxGeometry relative="1" as="geometry"/>
                </mxCell>
                <mxCell id="120" style="edgeStyle=none;rounded=0;html=1;exitX=0;exitY=0.5;exitDx=0;exitDy=0;entryX=1;entryY=0.5;entryDx=0;entryDy=0;strokeColor=#000000;strokeWidth=3;fontFamily=Helvetica;fontSize=20;fontColor=#000000;endArrow=classic;endFill=1;" edge="1" parent="1" source="114" target="119">
                    <mxGeometry relative="1" as="geometry"/>
                </mxCell>
                <mxCell id="114" value="Чтение" style="rhombus;whiteSpace=wrap;html=1;strokeColor=#000000;strokeWidth=3;fontFamily=Helvetica;fontSize=20;fontColor=#000000;fillColor=#f5f5f5;gradientColor=none;" vertex="1" parent="1">
                    <mxGeometry x="560" y="790" width="160" height="130" as="geometry"/>
                </mxCell>
                <mxCell id="124" style="edgeStyle=none;rounded=0;html=1;exitX=0.5;exitY=1;exitDx=0;exitDy=0;entryX=0.5;entryY=0;entryDx=0;entryDy=0;strokeColor=#000000;strokeWidth=3;fontFamily=Helvetica;fontSize=20;fontColor=#000000;endArrow=none;endFill=0;" edge="1" parent="1" source="115" target="116">
                    <mxGeometry relative="1" as="geometry"/>
                </mxCell>
                <mxCell id="115" value="Обработка данных" style="rounded=0;whiteSpace=wrap;html=1;fontSize=20;fillColor=#FFFFFF;strokeColor=#000000;strokeWidth=3;fontColor=#000000;" vertex="1" parent="1">
                    <mxGeometry x="580" y="960" width="120" height="60" as="geometry"/>
                </mxCell>
                <mxCell id="125" style="edgeStyle=none;rounded=0;html=1;exitX=0.5;exitY=1;exitDx=0;exitDy=0;entryX=0.5;entryY=0;entryDx=0;entryDy=0;strokeColor=#000000;strokeWidth=3;fontFamily=Helvetica;fontSize=20;fontColor=#000000;endArrow=none;endFill=0;" edge="1" parent="1" source="116" target="64">
                    <mxGeometry relative="1" as="geometry">
                        <Array as="points">
                            <mxPoint x="640" y="1190"/>
                            <mxPoint x="560" y="1190"/>
                        </Array>
                    </mxGeometry>
                </mxCell>
                <mxCell id="116" value="Ответ о статусе операции" style="rounded=0;whiteSpace=wrap;html=1;fontSize=20;fillColor=#FFFFFF;strokeColor=#000000;strokeWidth=3;fontColor=#000000;" vertex="1" parent="1">
                    <mxGeometry x="580" y="1060" width="120" height="80" as="geometry"/>
                </mxCell>
                <mxCell id="118" value="Да" style="text;html=1;strokeColor=none;fillColor=none;align=center;verticalAlign=middle;whiteSpace=wrap;rounded=0;strokeWidth=3;fontFamily=Helvetica;fontSize=20;fontColor=#000000;" vertex="1" parent="1">
                    <mxGeometry x="640" y="910" width="60" height="30" as="geometry"/>
                </mxCell>
                <mxCell id="123" style="edgeStyle=none;rounded=0;html=1;exitX=0.5;exitY=1;exitDx=0;exitDy=0;entryX=0;entryY=1;entryDx=0;entryDy=0;strokeColor=#000000;strokeWidth=3;fontFamily=Helvetica;fontSize=20;fontColor=#000000;endArrow=none;endFill=0;" edge="1" parent="1" source="119" target="118">
                    <mxGeometry relative="1" as="geometry">
                        <Array as="points">
                            <mxPoint x="415" y="940"/>
                        </Array>
                    </mxGeometry>
                </mxCell>
                <mxCell id="129" style="edgeStyle=none;rounded=0;html=1;exitX=0;exitY=0.5;exitDx=0;exitDy=0;strokeColor=#000000;strokeWidth=3;fontFamily=Helvetica;fontSize=20;fontColor=#000000;endArrow=classic;endFill=1;" edge="1" parent="1" source="119">
                    <mxGeometry relative="1" as="geometry">
                        <mxPoint x="300" y="855" as="targetPoint"/>
                    </mxGeometry>
                </mxCell>
                <mxCell id="119" value="Данные коректны" style="rhombus;whiteSpace=wrap;html=1;strokeColor=#000000;strokeWidth=3;fontFamily=Helvetica;fontSize=20;fontColor=#000000;fillColor=#f5f5f5;gradientColor=none;" vertex="1" parent="1">
                    <mxGeometry x="340" y="790" width="150" height="130" as="geometry"/>
                </mxCell>
                <mxCell id="121" value="Запись" style="text;html=1;strokeColor=none;fillColor=none;align=center;verticalAlign=middle;whiteSpace=wrap;rounded=0;strokeWidth=3;fontFamily=Helvetica;fontSize=20;fontColor=#000000;" vertex="1" parent="1">
                    <mxGeometry x="500" y="820" width="60" height="30" as="geometry"/>
                </mxCell>
                <mxCell id="130" value="Нет" style="text;html=1;strokeColor=none;fillColor=none;align=center;verticalAlign=middle;whiteSpace=wrap;rounded=0;strokeWidth=3;fontFamily=Helvetica;fontSize=20;fontColor=#000000;" vertex="1" parent="1">
                    <mxGeometry x="300" y="820" width="60" height="30" as="geometry"/>
                </mxCell>
                <mxCell id="131" value="Да" style="text;html=1;strokeColor=none;fillColor=none;align=center;verticalAlign=middle;whiteSpace=wrap;rounded=0;strokeWidth=3;fontFamily=Helvetica;fontSize=20;fontColor=#000000;" vertex="1" parent="1">
                    <mxGeometry x="420" y="900" width="60" height="30" as="geometry"/>
                </mxCell>
                <mxCell id="133" style="edgeStyle=none;rounded=0;html=1;exitX=0;exitY=0.5;exitDx=0;exitDy=0;strokeColor=#000000;strokeWidth=3;fontFamily=Helvetica;fontSize=20;fontColor=#000000;endArrow=none;endFill=0;" edge="1" parent="1" source="132">
                    <mxGeometry relative="1" as="geometry">
                        <mxPoint x="420" y="280.1739130434785" as="targetPoint"/>
                    </mxGeometry>
                </mxCell>
                <mxCell id="134" style="edgeStyle=none;rounded=0;html=1;exitX=1;exitY=0.5;exitDx=0;exitDy=0;strokeColor=#000000;strokeWidth=3;fontFamily=Helvetica;fontSize=20;fontColor=#000000;endArrow=none;endFill=0;" edge="1" parent="1" source="132">
                    <mxGeometry relative="1" as="geometry">
                        <mxPoint x="640" y="360" as="targetPoint"/>
                        <Array as="points">
                            <mxPoint x="640" y="280"/>
                        </Array>
                    </mxGeometry>
                </mxCell>
                <mxCell id="132" value="Profibus" style="rounded=0;whiteSpace=wrap;html=1;fontSize=20;fillColor=#FFFFFF;strokeColor=#000000;strokeWidth=3;fontColor=#000000;" vertex="1" parent="1">
                    <mxGeometry x="460" y="250" width="120" height="60" as="geometry"/>
                </mxCell>
            </root>
        </mxGraphModel>
    </diagram>
</mxfile>